# xmcd
#
# Track frame offsets:
#	150
#	23159
#	42794
#	65426
#	89461
#	103392
#	115684
#	134761
#	151917
#	173434
#	196466
#	209861
#
# Disc length: 3017 seconds
#
# Revision: 1
# Processed by: cddbd v1.5.2PL0 Copyright (c) Steve Scherf et al.
# Submitted via: audiograbber 1.83.01
#
DISCID=aa0bc70c
DTITLE=The Luminators - Bright Idea
DYEAR=1993
DGENRE=Blues
TTITLE0=(I Loved Her So Much It Was) Pitiful
TTITLE1=Shake 'N' Bake
TTITLE2=Metaphysical Blues
TTITLE3=The Fall
TTITLE4=When
TTITLE5=Snapperhead
TTITLE6=Who's Been Talking
TTITLE7=Red Dress Baby
TTITLE8=Black Cat Moan
TTITLE9=Outside Help
TTITLE10=I Gotta Right
TTITLE11=Short And Sweet
EXTD=Have Mercy Records\nHMCD-06
EXTT0=
EXTT1=
EXTT2=
EXTT3=
EXTT4=
EXTT5=
EXTT6=
EXTT7=
EXTT8=
EXTT9=
EXTT10=
EXTT11=
PLAYORDER=
